<?xml version="1.0" standalone="no"?><!DOCTYPE svg PUBLIC "-//W3C//DTD SVG 1.1//EN" "http://www.w3.org/Graphics/SVG/1.1/DTD/svg11.dtd"><svg t="1521421965770" class="icon" style="" viewBox="0 0 1024 1024" version="1.1" xmlns="http://www.w3.org/2000/svg" p-id="1048" xmlns:xlink="http://www.w3.org/1999/xlink" width="32" height="32"><defs><style type="text/css">@font-face { font-family: uc-nexus-iconfont; src: url("chrome-extension://pogijhnlcfmcppgimcaccdkmbedjkmhi/res/font_9qmmi8b8jsxxbt9.woff") format("woff"), url("chrome-extension://pogijhnlcfmcppgimcaccdkmbedjkmhi/res/font_9qmmi8b8jsxxbt9.ttf") format("truetype"); }
</style></defs><path d="M226.871 850.565c0 59.382 47.87 109.989 106.91 109.989h356.406c59.055 0 106.909-50.607 106.909-109.989l71.28-575.97h-712.796l71.292 575.97zM624.25 386.311h69.953v462.527h-69.953v-462.527zM469.726 386.311h84.57v462.527h-84.57v-462.527zM329.82 386.311h69.953v462.527h-69.953v-462.527zM850.572 134.688h-231.664c0 0-15.957-69.953-35.647-69.953h-142.555c-19.675 0-35.645 69.953-35.645 69.953h-231.638c-29.534 0-53.462 25.813-53.462 55.498 0 29.698 0 56.218 0 56.218h784.103c0 0 0-26.521 0-56.218 0-29.684-23.972-55.498-53.492-55.498z" p-id="1049" fill="#ffffff"></path></svg>