<?xml version="1.0" standalone="no"?><!DOCTYPE svg PUBLIC "-//W3C//DTD SVG 1.1//EN" "http://www.w3.org/Graphics/SVG/1.1/DTD/svg11.dtd"><svg t="1520568075066" class="icon" style="" viewBox="0 0 1024 1024" version="1.1" xmlns="http://www.w3.org/2000/svg" p-id="22236" xmlns:xlink="http://www.w3.org/1999/xlink" width="32" height="32"><defs><style type="text/css">@font-face { font-family: uc-nexus-iconfont; src: url("chrome-extension://pogijhnlcfmcppgimcaccdkmbedjkmhi/res/font_9qmmi8b8jsxxbt9.woff") format("woff"), url("chrome-extension://pogijhnlcfmcppgimcaccdkmbedjkmhi/res/font_9qmmi8b8jsxxbt9.ttf") format("truetype"); }
</style></defs><path d="M640 275.2H192c-12.8 0-19.2-6.4-19.2-19.2s6.4-19.2 19.2-19.2h448c12.8 0 19.2 6.4 19.2 19.2s-6.4 19.2-19.2 19.2zM640 435.2H192c-12.8 0-19.2-6.4-19.2-19.2s6.4-19.2 19.2-19.2h448c12.8 0 19.2 6.4 19.2 19.2s-6.4 19.2-19.2 19.2zM448 595.2H192c-12.8 0-19.2-6.4-19.2-19.2s6.4-19.2 19.2-19.2h256c12.8 0 19.2 6.4 19.2 19.2s-6.4 19.2-19.2 19.2zM448 755.2H192c-12.8 0-19.2-6.4-19.2-19.2s6.4-19.2 19.2-19.2h256c12.8 0 19.2 6.4 19.2 19.2s-6.4 19.2-19.2 19.2z" fill="#ffffff" p-id="22237"></path><path d="M454.4 960H192c-83.2 0-147.2-57.6-147.2-128V192c0-70.4 64-128 147.2-128h512c83.2 0 147.2 57.6 147.2 128v204.8c0 12.8-6.4 19.2-19.2 19.2s-19.2-6.4-19.2-19.2V192c0-51.2-51.2-89.6-108.8-89.6H192c-57.6 0-108.8 38.4-108.8 89.6v640c0 51.2 51.2 89.6 108.8 89.6h262.4c12.8 0 19.2 6.4 19.2 19.2s-6.4 19.2-19.2 19.2z" fill="#ffffff" p-id="22238"></path><path d="M729.6 972.8c-134.4 0-243.2-108.8-243.2-243.2s108.8-243.2 243.2-243.2 243.2 108.8 243.2 243.2-108.8 243.2-243.2 243.2z m0-448c-115.2 0-204.8 89.6-204.8 204.8s89.6 204.8 204.8 204.8 204.8-89.6 204.8-204.8-89.6-204.8-204.8-204.8z" fill="#ffffff" p-id="22239"></path><path d="M704 819.2c-64 0-115.2-51.2-115.2-115.2S640 588.8 704 588.8s115.2 51.2 115.2 115.2-51.2 115.2-115.2 115.2z m0-192c-44.8 0-76.8 32-76.8 76.8s32 76.8 76.8 76.8 76.8-32 76.8-76.8-32-76.8-76.8-76.8z" fill="#ffffff" p-id="22240"></path><path d="M844.8 832c-6.4 0-6.4 0-12.8-6.4l-64-51.2c-6.4-6.4-12.8-19.2 0-25.6 6.4-6.4 19.2-6.4 25.6 0l64 51.2c6.4 6.4 12.8 19.2 0 25.6 0 6.4-6.4 6.4-12.8 6.4z" fill="#ffffff" p-id="22241"></path></svg>