<?xml version="1.0" standalone="no"?><!DOCTYPE svg PUBLIC "-//W3C//DTD SVG 1.1//EN" "http://www.w3.org/Graphics/SVG/1.1/DTD/svg11.dtd"><svg t="1520567952893" class="icon" style="" viewBox="0 0 1024 1024" version="1.1" xmlns="http://www.w3.org/2000/svg" p-id="20531" xmlns:xlink="http://www.w3.org/1999/xlink" width="32" height="32"><defs><style type="text/css">@font-face { font-family: uc-nexus-iconfont; src: url("chrome-extension://pogijhnlcfmcppgimcaccdkmbedjkmhi/res/font_9qmmi8b8jsxxbt9.woff") format("woff"), url("chrome-extension://pogijhnlcfmcppgimcaccdkmbedjkmhi/res/font_9qmmi8b8jsxxbt9.ttf") format("truetype"); }
</style></defs><path d="M1024 511.7c0 8.5-3.1 15.8-9.3 22.1L748.3 800.2c-6.2 6.2-13.5 9.3-22.1 9.3-8.5 0-15.9-3.1-22.1-9.3s-9.3-13.5-9.3-22.1L694.8 637.3 477 637.3c-8.5 0-15.8-3.1-22.1-9.3-6.2-6.2-9.3-13.5-9.3-22.1L445.6 417.1c0-8.5 3.1-15.8 9.3-22.1 6.2-6.2 13.5-9.3 22.1-9.3l217.9 0L694.9 245.3c0-8.5 3.1-15.8 9.3-22.1 6.2-6.2 13.5-9.3 22.1-9.3 8.5 0 15.9 3.1 22.1 9.3L1014.7 489.7C1020.9 495.8 1024 503.2 1024 511.7L1024 511.7z" p-id="20532" fill="#ffffff"></path><path d="M718.6 160 718.6 160l49.4 0 0-64c0-52.9-43.1-96-96-96L160 0c-52.9 0-96 43.1-96 96l0 832c0 52.9 43.1 96 96 96l512 0c52.9 0 96-43.1 96-96l0-41-64 0 0 0L128 887l0-727L718.6 160zM320.8 64l190.5 0c17.7 0 32 14.3 32 32s-14.3 32-32 32L320.8 128c-17.7 0-32-14.3-32-32S303.1 64 320.8 64zM416 896c26.5 0 48 21.5 48 48 0 26.5-21.5 48-48 48s-48-21.5-48-48C368 917.5 389.5 896 416 896z" p-id="20533" fill="#ffffff"></path></svg>