<?xml version="1.0" standalone="no"?><!DOCTYPE svg PUBLIC "-//W3C//DTD SVG 1.1//EN" "http://www.w3.org/Graphics/SVG/1.1/DTD/svg11.dtd"><svg t="1520567290742" class="icon" style="" viewBox="0 0 1261 1024" version="1.1" xmlns="http://www.w3.org/2000/svg" p-id="16023" xmlns:xlink="http://www.w3.org/1999/xlink" width="39.40625" height="32"><defs><style type="text/css">@font-face { font-family: uc-nexus-iconfont; src: url("chrome-extension://pogijhnlcfmcppgimcaccdkmbedjkmhi/res/font_9qmmi8b8jsxxbt9.woff") format("woff"), url("chrome-extension://pogijhnlcfmcppgimcaccdkmbedjkmhi/res/font_9qmmi8b8jsxxbt9.ttf") format("truetype"); }
</style></defs><path d="M1160.743385 584.388923 1160.743385 332.012308 672.295385 752.797538 392.507077 449.299692 250.328615 567.138462 249.777231 432.128 400.068923 305.782154 400.777846 306.491077 401.723077 305.782154 681.747692 609.437538 1084.258462 261.041231 821.090462 261.041231 949.090462 164.785231 1260.307692 164.785231 1260.307692 471.04 1160.743385 584.388923ZM913.880615 77.193846 195.741538 77.193846C129.339077 77.193846 75.539692 129.181538 75.539692 193.378462L75.539692 722.313846C75.539692 786.510769 129.339077 838.577231 195.741538 838.577231L913.959385 838.577231 913.959385 838.656 1011.475692 838.656 1179.805538 838.656C1146.801231 887.335385 1087.172923 916.795077 1018.801231 916.795077L188.416 916.795077C84.361846 916.795077 0 849.053538 0 748.386462L0 182.272C0 81.604923 84.361846 0 188.416 0L1018.801231 0C1082.368 0 1138.294154 30.562462 1172.401231 77.193846L1011.475692 77.193846 913.880615 77.193846ZM435.593846 977.841231 829.44 977.841231C847.635692 977.841231 862.444308 988.002462 862.444308 1000.684308L862.444308 1001.156923C862.444308 1013.76 847.635692 1024 829.44 1024L435.593846 1024C417.398154 1024 402.589538 1013.76 402.589538 1001.156923L402.589538 1000.684308C402.589538 988.002462 417.398154 977.841231 435.593846 977.841231Z" p-id="16024" fill="#ffffff"></path></svg>