<?xml version="1.0" standalone="no"?><!DOCTYPE svg PUBLIC "-//W3C//DTD SVG 1.1//EN" "http://www.w3.org/Graphics/SVG/1.1/DTD/svg11.dtd"><svg t="1520587084407" class="icon" style="" viewBox="0 0 1024 1024" version="1.1" xmlns="http://www.w3.org/2000/svg" p-id="1923" xmlns:xlink="http://www.w3.org/1999/xlink" width="32" height="32"><defs><style type="text/css">@font-face { font-family: uc-nexus-iconfont; src: url("chrome-extension://pogijhnlcfmcppgimcaccdkmbedjkmhi/res/font_9qmmi8b8jsxxbt9.woff") format("woff"), url("chrome-extension://pogijhnlcfmcppgimcaccdkmbedjkmhi/res/font_9qmmi8b8jsxxbt9.ttf") format("truetype"); }
</style></defs><path d="M469.333333 853.341867c-211.754667 0-384-172.245333-384-384s172.245333-384 384-384 384 172.245333 384 384-172.245333 384-384 384m542.208 97.877333L829.952 769.5872c67.84-81.365333 108.714667-186.026667 108.714667-300.245333 0-259.2-210.133333-469.333333-469.333334-469.333334s-469.333333 210.133333-469.333333 469.333334 210.133333 469.333333 469.333333 469.333333c114.218667 0 218.88-40.874667 300.245334-108.714667l181.632 181.589334a42.7776 42.7776 0 0 0 60.330666 0 42.7776 42.7776 0 0 0 0-60.330667" p-id="1924" fill="#ffffff"></path></svg>